<?xml version="1.0" standalone="no"?>
<!DOCTYPE svg PUBLIC "-//W3C//DTD SVG 20010904//EN"
 "http://www.w3.org/TR/2001/REC-SVG-20010904/DTD/svg10.dtd">
<svg version="1.0" xmlns="http://www.w3.org/2000/svg"
 width="224.000000pt" height="224.000000pt" viewBox="0 0 224.000000 224.000000"
 preserveAspectRatio="xMidYMid meet">
<metadata>
Created by potrace 1.14, written by Peter Selinger 2001-2017
</metadata>
<g transform="translate(0.000000,224.000000) scale(0.100000,-0.100000)"
fill="#000000" stroke="none">
<path d="M315 2230 c3 -5 8 -10 11 -10 2 0 4 5 4 10 0 6 -5 10 -11 10 -5 0 -7
-4 -4 -10z"/>
<path d="M564 2226 c10 -8 24 -17 30 -19 6 -2 7 -8 3 -13 -4 -4 -17 -3 -27 4
-29 18 -48 15 -22 -4 21 -15 31 -44 14 -44 -5 0 -30 7 -55 16 -47 16 -84 13
-72 -6 3 -5 17 -10 31 -10 14 0 23 -4 20 -9 -4 -5 4 -7 16 -3 20 5 21 3 10
-10 -7 -9 -23 -19 -35 -22 -12 -3 -30 -19 -40 -35 -9 -16 -26 -33 -37 -36 -21
-7 -27 -31 -10 -37 14 -4 1 -68 -14 -68 -6 0 -19 -8 -28 -17 -9 -10 -24 -24
-33 -32 -9 -7 -14 -16 -11 -19 3 -3 14 2 24 11 10 10 25 17 33 17 11 -1 10 -4
-3 -14 -14 -10 -15 -15 -5 -26 9 -10 9 -14 -1 -17 -22 -8 -68 -52 -54 -53 6 0
12 4 12 9 0 5 10 7 21 4 18 -5 19 -7 6 -14 -9 -6 -13 -17 -10 -29 4 -14 -5
-30 -27 -53 -18 -17 -29 -26 -25 -18 6 11 4 13 -8 8 -14 -5 -16 -2 -11 18 10
39 -28 29 -38 -10 -3 -11 -9 -29 -14 -40 -7 -18 -6 -19 9 -6 24 20 29 10 11
-24 l-15 -29 22 20 c22 19 22 19 10 -1 -6 -11 -18 -31 -27 -45 -11 -16 -11
-19 -1 -7 18 22 28 22 20 0 -4 -11 -3 -14 5 -9 17 10 16 -59 -2 -87 -7 -12
-17 -35 -20 -51 -6 -24 -4 -27 9 -22 13 5 16 -1 13 -32 -2 -21 -8 -36 -14 -35
-7 1 -20 -7 -30 -19 -11 -12 -13 -18 -6 -14 7 4 12 1 12 -8 0 -18 -25 -21 -36
-5 -3 6 -9 7 -13 3 -3 -5 -21 -17 -40 -27 -34 -18 -34 -18 -61 8 -27 26 -50
33 -50 15 0 -5 8 -10 18 -11 10 0 12 -3 5 -6 -10 -3 -9 -12 3 -35 9 -17 14
-41 11 -54 -2 -13 0 -21 4 -18 5 3 9 12 9 20 0 8 4 14 10 14 6 0 5 -10 -2 -25
-7 -16 -19 -25 -35 -25 -12 0 -23 -4 -23 -10 0 -5 7 -10 15 -10 8 0 21 -15 29
-32 l14 -33 7 32 c6 28 9 30 22 18 8 -8 26 -15 40 -15 21 0 24 -4 20 -22 -3
-13 -9 -40 -12 -60 -8 -42 -35 -73 -36 -42 0 18 -1 18 -8 0 -10 -25 -19 -10
-30 46 -6 29 -9 35 -10 17 -1 -14 -11 -34 -23 -45 -12 -10 -18 -13 -14 -6 4 6
2 12 -4 12 -6 0 -10 -10 -8 -22 2 -13 9 -22 16 -21 6 2 12 -5 12 -15 0 -9 5
-24 11 -32 8 -12 9 -10 4 8 -11 38 29 27 69 -20 19 -24 33 -44 32 -46 -2 -1
-13 -4 -25 -7 -11 -2 -26 -7 -31 -10 -6 -4 -17 9 -26 27 l-15 33 5 -40 c5 -34
2 -43 -17 -55 -12 -8 -25 -13 -30 -12 -4 1 -7 -10 -7 -24 l0 -26 28 30 c15 16
47 39 70 51 39 20 44 20 72 6 46 -24 54 -47 29 -89 -12 -20 -26 -36 -32 -36
-5 0 -43 -25 -83 -55 -66 -50 -72 -52 -69 -30 1 14 -2 22 -6 19 -5 -2 -8 -20
-7 -38 l1 -33 65 49 c56 42 189 118 208 118 9 0 -5 -126 -18 -172 -10 -34 -38
-54 -38 -27 0 5 -5 7 -11 4 -6 -4 -8 -9 -5 -13 9 -8 -27 -31 -49 -31 -15 0
-13 3 10 14 36 16 28 19 -11 5 -18 -7 -37 -7 -58 -1 -52 17 -98 23 -91 11 3
-5 15 -10 25 -10 10 0 26 -10 34 -22 9 -13 16 -17 16 -9 0 10 9 12 37 7 21 -4
54 -10 73 -13 19 -3 37 -7 39 -9 4 -4 -23 -71 -57 -141 l-16 -31 -18 23 c-10
13 -18 28 -18 34 0 6 -4 11 -10 11 -5 0 -10 15 -11 33 l-1 32 -10 -30 c-6 -16
-15 -36 -21 -42 -14 -19 -44 -16 -56 5 -7 12 -10 -37 -11 -165 0 -101 3 -183
8 -183 22 2 159 206 167 250 1 8 8 14 15 12 6 -1 9 2 5 8 -4 6 3 31 15 56 11
25 23 59 27 75 3 18 12 29 22 29 9 0 23 6 30 12 11 11 11 9 1 -11 -9 -17 -9
-21 0 -16 11 7 37 -18 67 -63 9 -12 22 -22 29 -22 8 0 14 -7 14 -15 0 -8 11
-17 25 -21 14 -3 25 -13 25 -21 0 -8 15 -20 33 -28 19 -8 39 -21 46 -29 15
-18 83 -39 123 -38 18 0 28 -6 31 -19 8 -29 37 -24 37 6 0 17 5 25 18 25 9 0
26 12 37 27 36 50 64 73 94 79 17 4 38 15 47 25 9 11 26 19 36 19 11 0 16 5
13 10 -8 13 -2 13 28 -1 16 -7 25 -19 25 -35 0 -13 -4 -24 -8 -24 -4 0 -6 -11
-5 -25 2 -14 -1 -25 -6 -25 -5 0 -9 -5 -9 -11 0 -5 4 -8 8 -5 5 3 9 -1 9 -9 0
-9 -7 -14 -16 -13 -9 2 -16 -3 -17 -9 -1 -7 -3 -16 -4 -20 -1 -5 -2 -11 -1
-16 0 -4 -4 -7 -10 -7 -6 0 -8 -9 -4 -20 3 -11 2 -20 -3 -20 -10 0 -35 -50
-29 -57 2 -2 12 9 22 24 10 15 24 31 31 36 7 4 15 20 19 37 4 17 15 32 27 36
15 4 17 8 8 14 -10 6 -8 11 9 21 11 8 21 18 21 23 0 5 8 18 17 28 16 18 16 18
-3 12 -13 -5 -10 0 9 15 15 13 25 26 22 31 -3 4 2 13 10 20 8 7 15 20 15 28 0
12 -3 13 -12 4 -7 -7 -16 -12 -21 -12 -5 0 9 17 32 38 37 34 47 51 50 85 1 10
103 108 108 104 2 -2 -5 -42 -16 -88 -31 -137 -33 -177 -16 -284 9 -55 20
-102 25 -103 17 -6 11 -31 -10 -42 -14 -8 -20 -8 -20 0 0 6 -7 19 -16 28 -15
15 -16 14 -9 -7 5 -18 4 -22 -6 -16 -9 6 -11 3 -6 -8 3 -9 3 -16 -1 -16 -19 3
-23 -2 -13 -15 9 -10 8 -15 -4 -20 -24 -9 -18 -24 9 -22 13 0 24 3 23 6 -1 3
30 38 70 78 76 76 102 86 127 51 13 -19 12 -23 -3 -38 -13 -13 -16 -28 -11
-61 l5 -45 3 53 c4 66 19 67 28 2 4 -32 11 -50 20 -50 8 0 14 9 14 20 0 11 5
20 10 20 6 0 10 -8 10 -18 0 -14 8 -19 29 -20 28 -1 29 1 20 26 -6 15 -17 34
-25 43 -9 10 -11 19 -5 23 5 3 19 -6 30 -20 29 -37 26 -23 -4 22 -19 28 -25
50 -25 92 0 50 -3 58 -36 88 -26 25 -44 34 -70 34 -26 0 -41 7 -58 27 -20 23
-26 25 -39 15 -32 -27 -32 30 1 138 l17 55 5 -70 5 -70 9 80 c8 79 24 135 38
135 5 0 8 -9 8 -21 0 -11 5 -17 10 -14 6 4 10 -12 10 -41 0 -60 11 -51 15 13
2 26 3 55 4 63 1 10 4 11 12 3 14 -14 -5 -136 -21 -141 -5 -2 -10 -18 -10 -35
0 -18 -5 -49 -11 -71 -9 -33 -13 -36 -24 -25 -10 10 -11 26 -5 59 9 49 0 81
-11 40 -12 -43 -10 -97 5 -109 17 -15 46 -4 46 18 1 14 2 14 11 -1 13 -22 45
-23 53 -2 10 26 7 29 -8 9 -13 -18 -14 -18 -25 3 -7 13 -10 26 -7 30 2 4 7 36
10 72 11 126 26 159 26 59 0 -35 4 -69 8 -76 4 -6 6 22 4 63 -6 110 1 136 44
159 20 11 48 32 62 46 26 28 56 89 44 89 -5 0 -14 -16 -21 -35 -12 -34 -66
-85 -89 -85 -22 0 -12 44 16 74 l27 29 -32 -21 c-40 -28 -45 -28 -33 3 10 28
-2 75 -20 75 -7 0 -7 7 1 22 l12 22 22 -26 c13 -15 25 -33 28 -40 2 -7 8 -10
12 -6 4 4 0 28 -8 53 -9 25 -14 52 -10 60 3 8 0 15 -6 15 -8 0 -6 10 4 30 11
21 23 30 40 30 26 0 75 -39 75 -61 0 -11 2 -11 10 1 13 20 13 33 0 25 -6 -4
-10 6 -10 22 0 18 -3 24 -8 15 -9 -13 -42 -6 -42 9 0 5 -6 9 -14 9 -11 0 -12
5 -3 25 7 14 16 25 20 25 5 0 5 5 2 10 -10 16 -25 12 -25 -7 0 -12 -3 -14 -11
-6 -14 14 -2 53 15 53 8 0 12 9 9 23 -3 13 2 29 10 35 8 7 13 22 10 32 -8 29
6 25 39 -12 35 -40 36 -19 2 40 -26 44 -26 45 -5 39 12 -3 21 0 21 6 0 7 7 3
15 -7 8 -11 15 -15 15 -10 0 6 -7 19 -15 30 -11 14 -14 15 -15 4 0 -12 -2 -12
-15 1 -14 13 -14 20 0 64 19 63 19 77 -1 101 -14 18 -15 18 -8 -6 4 -14 9 -32
12 -40 2 -8 -2 -6 -10 5 -8 11 -18 38 -22 60 -4 22 -9 49 -12 60 -4 15 -1 14
10 -5 8 -14 24 -26 36 -26 19 -1 19 1 7 20 -8 11 -19 21 -25 21 -19 0 -25 14
-12 30 7 8 10 15 6 15 -4 0 1 14 9 31 9 17 15 35 13 40 -2 6 -18 -24 -36 -65
-18 -44 -29 -82 -25 -92 4 -10 2 -15 -3 -11 -18 10 -8 -38 15 -73 33 -52 23
-116 -44 -285 -89 -220 -200 -432 -267 -507 -28 -31 -213 -150 -308 -198 -73
-37 -174 -50 -245 -31 -22 5 -62 16 -90 23 -40 10 -65 27 -127 87 -43 40 -88
90 -100 110 -23 36 -42 61 -66 87 -7 8 -10 19 -6 25 4 7 3 9 -4 5 -10 -6 -28
30 -24 47 1 4 -2 7 -8 7 -14 0 -42 59 -34 72 4 6 3 8 -3 5 -11 -7 -23 24 -29
78 -9 68 -5 415 5 470 6 33 13 83 16 110 5 49 32 125 44 125 4 0 24 22 45 49
28 38 35 54 28 68 -22 44 9 203 53 273 24 39 74 66 100 56 9 -3 14 -2 11 3 -3
5 8 14 24 20 37 12 46 -1 30 -43 -5 -15 -10 -37 -10 -48 0 -17 7 -11 29 23 51
76 81 99 142 106 l54 6 -21 -24 c-23 -27 -47 -79 -36 -79 4 1 25 19 47 40 37
37 64 53 50 30 -3 -5 -3 -10 2 -10 4 0 18 16 31 35 12 19 18 35 12 35 -5 0
-10 -4 -10 -10 0 -5 -5 -10 -11 -10 -6 0 -24 -11 -41 -25 -49 -42 -51 -28 -3
19 36 34 42 45 30 49 -8 4 -15 2 -15 -4 0 -6 -7 -6 -19 1 -28 15 -32 13 -26
-13 5 -17 2 -24 -9 -24 -8 0 -13 4 -11 8 3 4 -2 10 -11 13 -20 8 -59 -17 -111
-72 -52 -53 -55 -44 -10 24 19 28 29 51 23 51 -6 0 -24 3 -40 7 -27 7 -27 6
-12 -10 19 -18 17 -36 -5 -42 -12 -3 -12 -2 0 6 11 8 2 16 -40 36 -30 15 -45
20 -35 12z m-382 -982 c9 -3 19 -13 22 -21 3 -7 2 -12 -3 -9 -17 11 -71 -7
-96 -32 -14 -13 -25 -20 -25 -14 0 6 7 18 16 26 8 9 11 16 5 16 -6 0 -8 7 -4
16 6 17 42 35 58 28 6 -2 18 -7 27 -10z m-114 -39 c-3 -3 -9 2 -12 12 -6 14
-5 15 5 6 7 -7 10 -15 7 -18z m1479 -190 c-4 -8 -12 -15 -19 -14 -10 0 -10 2
0 6 6 2 12 12 12 21 0 8 3 13 6 9 4 -3 4 -13 1 -22z m-1347 -116 c0 17 46 -19
59 -46 11 -24 4 -25 -47 -4 -22 9 -29 17 -21 21 8 5 5 10 -10 15 -12 3 -19 11
-15 16 4 6 11 6 20 -2 11 -9 14 -9 14 0z m1290 -89 c12 -22 -4 -56 -30 -63
-11 -3 -15 4 -14 28 2 54 24 72 44 35z m-1210 -40 c0 -19 -7 -33 -21 -40 -11
-7 -23 -10 -25 -7 -7 7 16 61 29 69 17 11 17 11 17 -22z m1200 -74 c-1 -21 -1
-21 -15 -2 -19 25 -19 37 0 30 8 -4 15 -16 15 -28z m-53 -7 c0 -31 0 -31 -13
-7 -17 30 -17 38 -1 38 9 0 14 -12 14 -31z m83 21 c0 -5 -5 -10 -11 -10 -5 0
-7 5 -4 10 3 6 8 10 11 10 2 0 4 -4 4 -10z m-120 -10 c0 -5 -4 -10 -10 -10 -5
0 -10 -9 -10 -19 0 -11 -5 -23 -11 -26 -19 -12 -20 2 -2 34 18 30 33 40 33 21z
m-80 -191 c-13 -43 -26 -67 -31 -62 -8 8 18 104 37 134 17 28 15 -8 -6 -72z
m-300 -149 c0 -5 -2 -10 -4 -10 -3 0 -8 5 -11 10 -3 6 -1 10 4 10 6 0 11 -4
11 -10z m340 -41 c0 -5 -4 -9 -10 -9 -5 0 -10 7 -10 16 0 8 5 12 10 9 6 -3 10
-10 10 -16z m110 -49 c0 -5 -4 -10 -10 -10 -5 0 -10 5 -10 10 0 6 5 10 10 10
6 0 10 -4 10 -10z m36 -24 c8 -8 11 -22 8 -30 -7 -18 -24 -22 -24 -6 0 6 5 10
12 10 6 0 3 9 -7 20 -20 23 -11 28 11 6z m13 -120 c0 -12 -4 -30 -8 -41 -6
-14 -10 -4 -12 38 -3 48 -2 55 9 40 6 -9 12 -26 11 -37z"/>
<path d="M210 866 c0 -2 9 -6 20 -9 11 -3 18 -1 14 4 -5 9 -34 13 -34 5z"/>
<path d="M1048 2208 c5 -32 4 -33 -15 -15 -11 9 -24 17 -30 17 -13 0 -83 -72
-96 -98 -5 -9 5 -2 22 15 30 32 31 32 86 22 31 -6 63 -9 73 -8 48 4 75 -3 97
-27 14 -15 25 -35 25 -45 0 -11 4 -19 9 -19 5 0 7 10 3 23 -7 28 -47 89 -54
82 -3 -3 -11 1 -18 10 -9 11 -17 12 -31 4 -16 -8 -24 -6 -39 13 -11 13 -19 31
-20 41 0 9 -4 17 -8 17 -5 0 -6 -15 -4 -32z"/>
<path d="M1140 2230 c0 -5 7 -7 15 -4 8 4 15 2 15 -4 0 -6 -6 -12 -12 -14 -8
-3 -3 -10 12 -18 31 -17 59 -50 60 -72 0 -18 20 -36 20 -18 0 16 44 3 135 -40
91 -42 97 -48 118 -110 12 -34 17 -41 22 -27 4 9 5 28 3 42 -5 24 -5 24 23 8
91 -54 123 -105 123 -195 0 -64 14 -69 15 -5 1 19 6 27 19 27 14 0 15 -2 2
-10 -8 -5 -10 -10 -5 -11 6 0 21 -2 35 -3 14 -1 36 -6 50 -11 22 -7 23 -6 12
8 -7 8 -33 21 -59 29 -51 15 -79 52 -52 69 12 7 12 9 0 9 -8 0 -25 10 -38 22
l-23 22 32 33 c38 39 33 44 -8 8 -41 -36 -47 -33 -47 18 0 19 -12 23 -22 7
-11 -18 -23 -10 -17 12 4 17 2 20 -11 15 -14 -5 -13 -1 3 26 11 18 20 41 20
51 0 15 -8 9 -31 -22 -33 -46 -41 -52 -33 -24 5 14 4 15 -5 2 -5 -8 -8 -26 -5
-40 5 -25 5 -25 -11 3 -9 15 -22 27 -30 27 -11 0 -15 12 -15 48 0 69 -15 86
-30 34 -10 -39 -30 -58 -30 -29 0 8 -4 7 -10 -3 -9 -15 -14 5 -14 62 0 9 -3
15 -8 12 -4 -3 -8 -13 -8 -22 0 -28 -14 -42 -38 -35 -22 5 -32 33 -12 33 6 0
10 10 10 21 0 16 -3 19 -13 11 -14 -12 -31 -4 -40 18 -4 10 -6 8 -6 -7 -1 -13
5 -23 12 -23 9 0 8 -3 -2 -9 -11 -7 -11 -9 0 -14 10 -4 9 -6 -3 -6 -31 -2 -35
72 -4 91 15 10 0 22 -19 15 -8 -4 -15 -18 -15 -32 0 -14 -4 -25 -9 -25 -16 0
-31 27 -25 44 5 12 0 16 -20 16 -14 0 -26 -4 -26 -10z"/>
<path d="M1282 2210 c0 -19 2 -27 5 -17 2 9 2 25 0 35 -3 9 -5 1 -5 -18z"/>
<path d="M1622 2220 c7 -10 14 -18 15 -16 6 6 -9 36 -18 36 -5 0 -4 -9 3 -20z"/>
<path d="M0 2203 c0 -17 28 -48 36 -40 4 4 2 7 -4 7 -7 0 -12 6 -12 14 0 8 -4
18 -10 21 -5 3 -10 2 -10 -2z"/>
<path d="M1670 2203 c1 -4 7 -19 15 -33 11 -20 14 -21 15 -7 0 10 -7 25 -15
33 -8 9 -15 12 -15 7z"/>
<path d="M1517 2153 c-9 -25 -15 -48 -12 -51 3 -3 5 0 5 6 0 6 7 9 15 6 12 -5
15 3 15 40 0 25 -1 46 -3 46 -1 0 -10 -21 -20 -47z"/>
<path d="M1720 2191 c0 -6 4 -13 10 -16 6 -3 7 1 4 9 -7 18 -14 21 -14 7z"/>
<path d="M170 2176 c0 -2 8 -10 18 -17 15 -13 16 -12 3 4 -13 16 -21 21 -21
13z"/>
<path d="M1756 2146 c-3 -13 -2 -35 3 -48 7 -19 9 -16 12 25 4 50 -5 64 -15
23z"/>
<path d="M40 2148 c0 -3 13 -34 29 -67 19 -40 31 -56 35 -46 3 8 2 15 -2 15
-5 0 -13 15 -20 33 -12 32 -41 78 -42 65z"/>
<path d="M1786 2137 c3 -10 9 -15 12 -12 3 3 0 11 -7 18 -10 9 -11 8 -5 -6z"/>
<path d="M351 2124 c-12 -14 -10 -15 10 -12 12 1 24 9 27 16 5 17 -20 14 -37
-4z"/>
<path d="M862 2118 c-13 -17 -32 -86 -32 -118 0 -20 6 -15 30 29 35 62 38 77
10 41 -23 -30 -26 -11 -5 30 16 31 15 39 -3 18z"/>
<path d="M1801 2100 c0 -8 4 -22 9 -30 12 -18 12 -2 0 25 -6 13 -9 15 -9 5z"/>
<path d="M1521 2084 c0 -11 3 -14 6 -6 3 7 2 16 -1 19 -3 4 -6 -2 -5 -13z"/>
<path d="M1234 2045 c-7 -14 -9 -38 -4 -57 l7 -33 8 47 c9 57 4 76 -11 43z"/>
<path d="M328 2053 c6 -2 18 -2 25 0 6 3 1 5 -13 5 -14 0 -19 -2 -12 -5z"/>
<path d="M531 1990 c-7 -33 -20 -65 -27 -71 -8 -6 -14 -17 -14 -24 0 -7 -13
-25 -30 -38 -36 -30 -39 -62 -8 -70 l22 -6 -24 -21 c-13 -11 -29 -18 -36 -16
-12 4 -31 -30 -22 -39 1 -2 34 12 72 30 78 37 81 37 173 -18 29 -17 51 -37 49
-44 -3 -8 1 -10 11 -6 13 5 15 2 10 -11 -5 -13 -1 -19 12 -23 11 -3 22 -12 26
-20 4 -12 2 -13 -7 -5 -23 18 -88 31 -111 22 -21 -8 -21 -9 4 -9 15 -1 57 -17
95 -36 73 -38 89 -42 79 -22 -4 6 7 -3 24 -20 49 -52 63 -42 36 27 -12 30 -14
32 -14 11 -1 -23 -8 -18 -68 42 -112 109 -215 172 -270 164 -18 -3 -33 -2 -33
3 0 5 13 30 29 55 16 25 32 67 35 93 4 26 10 62 13 80 10 57 -12 34 -26 -28z"/>
<path d="M1811 2043 c0 -4 4 -17 9 -28 8 -19 9 -19 9 2 1 12 -3 25 -9 28 -5 3
-10 3 -9 -2z"/>
<path d="M100 1985 c0 -18 -5 -25 -18 -25 -10 0 -22 -3 -26 -7 -4 -5 -17 -8
-28 -8 -18 0 -21 -8 -25 -57 -3 -39 -1 -58 7 -58 6 0 8 5 5 10 -4 6 -4 23 0
39 5 23 11 29 31 27 13 0 24 -7 24 -13 0 -7 11 -15 25 -19 14 -3 25 -10 25
-15 0 -12 -36 -30 -44 -22 -3 3 -6 1 -6 -6 0 -7 -5 -9 -12 -5 -10 6 -10 4 0
-8 13 -17 1 -35 -16 -24 -5 3 -8 -5 -7 -17 2 -16 7 -21 21 -19 22 5 34 20 28
37 -3 7 11 26 31 44 28 24 33 33 20 37 -19 8 -20 24 0 24 8 0 15 4 15 8 0 5
-12 7 -27 7 -16 -1 -39 1 -53 5 -25 6 -24 7 11 24 30 14 35 21 31 41 -6 32
-12 32 -12 0z"/>
<path d="M70 1980 c0 -5 5 -10 11 -10 5 0 7 5 4 10 -3 6 -8 10 -11 10 -2 0 -4
-4 -4 -10z"/>
<path d="M265 1944 c-27 -14 -57 -32 -65 -40 -13 -13 -12 -14 14 -4 26 10 28
9 16 -5 -19 -22 5 -38 32 -22 23 15 23 28 1 21 -10 -2 -8 1 5 7 12 7 22 16 22
21 0 5 -6 6 -12 2 -7 -4 -5 2 6 12 12 12 20 15 23 8 3 -9 10 -9 28 0 14 6 25
14 25 19 0 15 -46 6 -95 -19z"/>
<path d="M1768 1933 c7 -3 16 -2 19 1 4 3 -2 6 -13 5 -11 0 -14 -3 -6 -6z"/>
<path d="M1858 1917 c-3 -15 -2 -27 3 -27 13 0 17 14 9 35 -6 17 -7 16 -12 -8z"/>
<path d="M1891 1924 c0 -11 3 -14 6 -6 3 7 2 16 -1 19 -3 4 -6 -2 -5 -13z"/>
<path d="M1665 1920 c-3 -6 1 -7 9 -4 18 7 21 14 7 14 -6 0 -13 -4 -16 -10z"/>
<path d="M254 1848 l-19 -21 28 18 c28 18 33 25 19 25 -5 0 -17 -10 -28 -22z"/>
<path d="M620 1861 c0 -6 10 -16 23 -22 12 -6 34 -23 49 -37 40 -37 45 -20 6
21 -33 35 -78 57 -78 38z"/>
<path d="M1877 1851 c-4 -17 -3 -21 5 -13 5 5 8 16 6 23 -3 8 -7 3 -11 -10z"/>
<path d="M1713 1843 c9 -2 23 -2 30 0 6 3 -1 5 -18 5 -16 0 -22 -2 -12 -5z"/>
<path d="M411 1814 c0 -11 3 -14 6 -6 3 7 2 16 -1 19 -3 4 -6 -2 -5 -13z"/>
<path d="M121 1803 c-18 -4 -21 -7 -11 -13 12 -7 11 -12 -4 -28 -11 -13 -13
-21 -6 -24 16 -5 -2 -45 -39 -88 -25 -29 -32 -33 -41 -20 -5 8 -10 11 -11 5 0
-5 -2 -18 -4 -27 -2 -10 2 -18 8 -18 7 0 5 -5 -3 -10 -9 -6 -10 -10 -3 -10 6
0 35 33 64 73 28 39 63 84 77 99 l25 27 -24 -5 -24 -5 23 17 c12 9 22 20 22
25 0 9 -8 10 -49 2z m19 -57 c0 -3 -4 -8 -10 -11 -5 -3 -10 -1 -10 4 0 6 5 11
10 11 6 0 10 -2 10 -4z"/>
<path d="M1515 1758 c-25 -85 -4 -188 38 -188 8 0 7 3 -2 9 -7 5 -11 13 -7 19
3 6 2 13 -3 17 -17 10 -23 88 -11 139 15 67 5 70 -15 4z"/>
<path d="M1896 1765 c4 -8 11 -15 16 -15 6 0 5 6 -2 15 -7 8 -14 15 -16 15 -2
0 -1 -7 2 -15z"/>
<path d="M4 1756 c-3 -8 -4 -23 -2 -33 3 -11 6 -6 9 15 6 34 2 42 -7 18z"/>
<path d="M205 1739 c-11 -16 -1 -19 13 -3 7 8 8 14 3 14 -5 0 -13 -5 -16 -11z"/>
<path d="M1700 1709 c0 -5 5 -7 10 -4 6 3 10 8 10 11 0 2 -4 4 -10 4 -5 0 -10
-5 -10 -11z"/>
<path d="M196 1683 c-6 -14 -5 -15 5 -6 7 7 10 15 7 18 -3 3 -9 -2 -12 -12z"/>
<path d="M1710 1690 c-9 -6 -10 -10 -3 -10 6 0 15 5 18 10 8 12 4 12 -15 0z"/>
<path d="M1920 1691 c0 -6 4 -13 10 -16 6 -3 7 1 4 9 -7 18 -14 21 -14 7z"/>
<path d="M1730 1673 c0 -5 9 -18 20 -28 11 -10 20 -15 20 -11 0 4 -9 16 -20
28 -11 12 -20 17 -20 11z"/>
<path d="M1671 1641 c0 -3 19 -22 42 -41 23 -19 35 -26 26 -15 -9 11 -14 25
-12 32 2 6 -2 15 -9 19 -15 10 -48 13 -47 5z"/>
<path d="M1900 1628 c0 -9 8 -18 18 -22 9 -3 23 -9 30 -12 6 -3 12 -1 12 5 0
6 -5 11 -12 11 -6 0 -20 7 -30 17 -16 14 -18 14 -18 1z"/>
<path d="M100 1612 c-16 -8 -25 -32 -12 -32 5 0 17 9 27 20 18 20 13 24 -15
12z"/>
<path d="M42 1560 c-7 -11 -9 -20 -4 -20 10 0 32 22 32 32 0 15 -15 8 -28 -12z"/>
<path d="M1836 1567 c3 -10 9 -15 12 -12 3 3 0 11 -7 18 -10 9 -11 8 -5 -6z"/>
<path d="M118 1563 c6 -2 9 -10 6 -15 -4 -7 -2 -8 4 -4 18 11 14 26 -5 25 -11
0 -13 -3 -5 -6z"/>
<path d="M465 1560 c-4 -6 6 -7 27 -3 44 8 48 13 10 13 -17 0 -34 -4 -37 -10z"/>
<path d="M675 1541 c33 -9 71 -23 85 -30 l25 -12 -24 19 c-28 23 -87 42 -122
41 -13 0 3 -8 36 -18z"/>
<path d="M1063 1550 c-13 -5 -23 -14 -23 -19 0 -12 25 -4 55 16 23 15 3 17
-32 3z"/>
<path d="M1920 1545 c0 -18 -16 -20 -23 -2 -3 6 -6 3 -6 -8 -1 -11 8 -26 19
-33 19 -11 20 -10 20 23 0 19 -2 35 -5 35 -3 0 -5 -7 -5 -15z"/>
<path d="M10 1510 c-6 -11 -8 -20 -6 -20 3 0 10 9 16 20 6 11 8 20 6 20 -3 0
-10 -9 -16 -20z"/>
<path d="M456 1522 c-16 -4 -31 -12 -33 -18 -2 -7 36 -13 119 -17 92 -4 136
-10 176 -26 63 -25 62 -25 62 -6 0 17 -28 34 -85 53 -47 15 -198 24 -239 14z"/>
<path d="M1786 1480 c10 -16 19 -28 21 -26 6 6 -20 56 -29 56 -5 0 -1 -13 8
-30z"/>
<path d="M1056 1484 c-22 -22 -21 -48 2 -39 29 13 55 11 60 -4 3 -9 0 -11 -8
-6 -9 5 -10 2 -6 -14 3 -11 8 -29 11 -39 3 -11 31 -31 63 -47 78 -37 91 -43
137 -54 63 -17 75 -12 20 7 -28 10 -51 23 -51 32 -1 8 -2 21 -3 28 -1 17 -32
15 -46 -4 -10 -15 -14 -15 -46 1 -79 40 -96 82 -29 71 63 -10 294 -87 306
-102 15 -18 25 -18 18 0 -7 18 -134 67 -249 98 -47 12 -85 26 -85 31 0 15 89
1 169 -26 39 -13 70 -19 68 -13 -2 5 -32 20 -68 32 -35 12 -57 23 -49 23 13 1
13 2 0 11 -10 7 20 10 95 10 l109 0 49 -47 c54 -53 49 -30 -6 30 l-35 37 -205
0 c-174 0 -208 -2 -221 -16z"/>
<path d="M1745 1486 c-16 -18 -11 -50 8 -54 16 -3 17 -1 7 18 -8 15 -8 20 -1
16 6 -4 11 -1 11 8 0 20 -13 26 -25 12z"/>
<path d="M134 1468 c-10 -12 -13 -18 -6 -14 6 4 12 3 12 -1 0 -5 -6 -15 -12
-22 -11 -11 -10 -12 0 -6 13 7 36 55 29 61 -2 2 -12 -6 -23 -18z"/>
<path d="M70 1440 c-6 -11 -7 -20 -2 -20 6 0 12 9 15 20 3 11 3 20 1 20 -2 0
-8 -9 -14 -20z"/>
<path d="M1690 1451 c0 -5 5 -13 10 -16 6 -3 10 -2 10 4 0 5 -4 13 -10 16 -5
3 -10 2 -10 -4z"/>
<path d="M1902 1435 c0 -16 2 -22 5 -12 2 9 2 23 0 30 -3 6 -5 -1 -5 -18z"/>
<path d="M614 1432 c4 -7 17 -12 29 -12 12 0 43 -7 69 -15 52 -15 78 -2 31 16
-44 17 -138 25 -129 11z"/>
<path d="M1842 1373 c0 -37 3 -53 5 -35 5 39 18 41 31 5 6 -16 11 -21 11 -11
1 9 4 25 7 35 4 14 4 15 -4 4 -7 -10 -12 -5 -22 23 -19 60 -30 52 -28 -21z"/>
<path d="M880 1406 c0 -32 -55 -134 -96 -176 -19 -20 -34 -43 -34 -52 0 -28
41 -108 55 -108 18 0 28 33 21 68 -4 18 4 56 25 112 33 90 52 180 38 180 -5 0
-9 -11 -9 -24z"/>
<path d="M141 1401 c-10 -7 -10 -10 -1 -13 10 -3 10 -9 1 -25 -16 -32 -15 -48
4 -33 12 10 15 9 15 -5 0 -26 6 -15 13 23 5 23 3 31 -4 26 -7 -4 -9 1 -4 15 7
22 -1 26 -24 12z"/>
<path d="M1400 1400 c0 -7 24 -20 36 -20 13 0 1 19 -16 23 -11 3 -20 2 -20 -3z"/>
<path d="M85 1380 c-10 -11 -13 -20 -7 -20 6 0 16 9 22 20 6 11 9 20 7 20 -2
0 -12 -9 -22 -20z"/>
<path d="M1475 1350 c10 -11 20 -18 23 -15 7 6 -18 35 -31 35 -5 0 -2 -9 8
-20z"/>
<path d="M1059 1320 c13 -11 37 -20 55 -20 31 0 31 1 -13 20 -55 25 -73 25
-42 0z"/>
<path d="M1740 1331 c0 -5 5 -13 10 -16 6 -3 10 -2 10 4 0 5 -4 13 -10 16 -5
3 -10 2 -10 -4z"/>
<path d="M1793 1266 c0 -16 4 -23 13 -19 10 4 11 10 3 24 -13 25 -16 24 -16
-5z"/>
<path d="M1691 1238 c16 -30 24 -38 15 -14 -4 12 -2 23 6 28 9 5 6 8 -10 8
-20 0 -22 -2 -11 -22z"/>
<path d="M1826 1225 c4 -8 8 -15 10 -15 2 0 4 7 4 15 0 8 -4 15 -10 15 -5 0
-7 -7 -4 -15z"/>
<path d="M1640 1181 c0 -6 4 -13 10 -16 6 -3 7 1 4 9 -7 18 -14 21 -14 7z"/>
<path d="M1756 1174 c-8 -21 -8 -39 1 -30 8 7 15 46 9 46 -2 0 -7 -7 -10 -16z"/>
<path d="M1765 1130 c-3 -5 -1 -10 4 -10 6 0 11 5 11 10 0 6 -2 10 -4 10 -3 0
-8 -4 -11 -10z"/>
<path d="M850 1125 c0 -9 71 -37 78 -30 10 10 -28 35 -55 35 -13 0 -23 -2 -23
-5z"/>
<path d="M1697 1090 c-3 -14 -2 -26 3 -28 6 -2 10 -13 11 -25 1 -18 3 -16 10
7 4 17 6 32 4 35 -3 2 -6 -2 -6 -10 -1 -8 -4 0 -8 16 l-7 30 -7 -25z"/>
<path d="M440 1070 c0 -13 71 -45 134 -59 63 -15 71 -8 9 9 -26 7 -65 23 -85
36 -40 26 -58 30 -58 14z"/>
<path d="M647 999 c7 -7 15 -10 18 -7 3 3 -2 9 -12 12 -14 6 -15 5 -6 -5z"/>
<path d="M680 996 c0 -2 7 -6 15 -10 8 -3 15 -1 15 4 0 6 -7 10 -15 10 -8 0
-15 -2 -15 -4z"/>
<path d="M728 983 c7 -3 16 -2 19 1 4 3 -2 6 -13 5 -11 0 -14 -3 -6 -6z"/>
<path d="M778 973 c7 -3 16 -2 19 1 4 3 -2 6 -13 5 -11 0 -14 -3 -6 -6z"/>
<path d="M828 963 c7 -3 16 -2 19 1 4 3 -2 6 -13 5 -11 0 -14 -3 -6 -6z"/>
<path d="M1555 960 c-3 -4 1 -15 9 -23 8 -8 12 -17 9 -21 -4 -3 -2 -6 4 -6 6
0 13 -13 17 -30 8 -41 26 -38 22 3 -5 52 -45 103 -61 77z"/>
<path d="M868 953 c6 -2 18 -2 25 0 6 3 1 5 -13 5 -14 0 -19 -2 -12 -5z"/>
<path d="M910 950 c0 -8 139 -34 146 -28 2 3 -30 12 -71 20 -41 8 -75 11 -75
8z"/>
<path d="M1265 934 c-22 -8 -75 -15 -119 -15 -43 0 -77 -2 -75 -4 2 -2 29 -7
59 -11 105 -15 180 -4 180 26 0 11 -1 20 -2 19 -2 0 -21 -7 -43 -15z"/>
<path d="M1643 855 c0 -22 2 -30 4 -17 2 12 2 30 0 40 -3 9 -5 -1 -4 -23z"/>
<path d="M595 850 c13 -12 65 -30 140 -49 161 -39 160 -39 238 -46 53 -5 67
-4 67 7 0 30 -298 108 -415 108 -49 0 -49 0 -30 -20z"/>
<path d="M1385 520 c-4 -17 -5 -34 -2 -36 2 -3 7 10 11 27 8 42 0 50 -9 9z"/>
<path d="M118 513 c7 -3 16 -2 19 1 4 3 -2 6 -13 5 -11 0 -14 -3 -6 -6z"/>
<path d="M92 38 c-6 -8 -8 -19 -4 -23 4 -5 -1 -5 -11 -2 -11 4 -16 3 -12 -3
10 -17 45 -11 68 11 l22 22 -22 -6 c-12 -2 -24 0 -25 5 -2 6 -9 4 -16 -4z"/>
<path d="M1580 31 c0 -5 7 -15 17 -22 15 -13 15 -12 4 9 -12 23 -21 28 -21 13z"/>
</g>
</svg>
